# File created by Blade
# Date/Time:  Thu Sep 25 18:39:44 2014
# Frame Rate: 120.000 fps
#------------------------------------------------------
:FULLY-SPECIFIED
:DEGREES
1142
root -1.016587 33.163206 -2.116259 7.406947 3.748595 -0.959871
Spine -13.120011 4.358484 -2.848461
Head 0.455385 5.279268 10.713257
LeftShoulder -18.103211 -11.231407 44.057757
LeftArm 163.374019 -40.168577 -111.276685
LeftForeArm -40.689038 -0.000000 143.875771
LeftHand -5.170332 -0.000000 -17.388711
LeftHandThumb1 -26.253704 0.000000 33.147579
RightShoulder -19.461314 29.009372 -52.743129
RightArm 57.510457 42.964097 44.570812
RightForeArm 60.737561 -0.000000 102.358793
RightHand 2.703491 0.000000 6.312281
RightHandThumb1 -24.326973 -0.000000 -32.862282
LeftUpLeg -0.102091 6.260688 2.210410
LeftLeg -1.558061 -0.000000 0.000000
LeftFoot -8.124066 1.525689 -11.235462
LeftToeBase 9.885785 -0.000000 -0.000000
RightUpLeg -0.869488 -7.380538 0.526599
RightLeg 0.578703 -0.000000 -0.000000
RightFoot -6.718274 -1.399422 0.520843
RightToeBase -1.075301 -0.000000 0.000000
1143
root -1.019552 33.162839 -2.116579 7.402819 3.748434 -0.965253
Spine -13.126164 4.360326 -2.845566
Head 0.452349 5.278685 10.718594
LeftShoulder -18.067182 -11.334056 44.091714
LeftArm 163.318105 -40.209836 -111.252426
LeftForeArm -40.597317 -0.000000 143.881761
LeftHand -5.455241 -0.000000 -16.819957
LeftHandThumb1 -26.253704 0.000000 33.147579
RightShoulder -19.551735 29.187212 -52.920428
RightArm 57.259562 42.777693 44.550635
RightForeArm 60.666629 0.000000 102.421734
RightHand 2.638455 -0.000000 6.159429
RightHandThumb1 -24.326973 -0.000000 -32.862282
LeftUpLeg -0.103363 6.268837 2.225808
LeftLeg -1.553238 -0.000000 0.000000
LeftFoot -8.129662 1.491826 -11.186422
LeftToeBase 9.934226 -0.000000 -0.000000
RightUpLeg -0.844215 -7.306520 0.532715
RightLeg 0.534643 -0.000000 -0.000000
RightFoot -6.701009 -1.452009 0.568724
RightToeBase -1.072685 -0.000000 0.000000
1144
root -1.020723 33.163033 -2.116543 7.393799 3.749352 -0.961600
Spine -13.126156 4.358691 -2.849146
Head 0.432656 5.270156 10.712440
LeftShoulder -18.034637 -11.412624 44.109532
LeftArm 163.286843 -40.246606 -111.226220
LeftForeArm -40.648597 -0.000000 143.874446
LeftHand -5.223379 0.000000 -17.284059
LeftHandThumb1 -26.253704 0.000000 33.147579
RightShoulder -19.574510 29.201782 -52.938651
RightArm 57.251766 42.745464 44.560712
RightForeArm 60.666145 0.000000 102.421713
RightHand 2.608372 -0.000000 6.157977
RightHandThumb1 -24.326973 -0.000000 -32.862282
LeftUpLeg -0.094948 6.260141 2.227695
LeftLeg -1.550937 -0.000000 0.000000
LeftFoot -8.115920 1.488864 -11.169406
LeftToeBase 9.895704 -0.000000 -0.000000
RightUpLeg -0.839747 -7.326834 0.530516
RightLeg 0.544176 -0.000000 -0.000000
RightFoot -6.701843 -1.433445 0.552668
RightToeBase -1.108239 -0.000000 0.000000
1145
root -1.022386 33.162817 -2.116117 7.386400 3.749515 -0.962247
Spine -13.128951 4.352758 -2.844508
Head 0.424734 5.273472 10.707702
LeftShoulder -18.005103 -11.536898 44.149580
LeftArm 163.200421 -40.295762 -111.177904
LeftForeArm -40.627926 -0.000000 143.873200
LeftHand -5.272745 -0.000000 -17.260055
LeftHandThumb1 -26.253704 0.000000 33.147579
RightShoulder -19.572140 29.169197 -52.939712
RightArm 57.280975 42.762879 44.606604
RightForeArm 60.650254 -0.000000 102.434934
RightHand 2.569804 -0.000000 6.096883
RightHandThumb1 -24.326973 -0.000000 -32.862282
LeftUpLeg -0.091592 6.263938 2.224982
LeftLeg -1.535379 -0.000000 0.000000
LeftFoot -8.141461 1.513471 -11.232124
LeftToeBase 9.901207 -0.000000 -0.000000
RightUpLeg -0.833142 -7.318312 0.533151
RightLeg 0.548133 -0.000000 -0.000000
RightFoot -6.713399 -1.440432 0.556759
RightToeBase -1.084941 -0.000000 0.000000
1146
root -1.023527 33.162907 -2.116068 7.378667 3.755733 -0.961394
Spine -13.130583 4.331483 -2.840057
Head 0.426040 5.265823 10.709562
LeftShoulder -17.988890 -11.582358 44.159307
LeftArm 163.182535 -40.318101 -111.161951
LeftForeArm -40.618268 -0.000000 143.871238
LeftHand -5.280915 -0.000000 -17.240875
LeftHandThumb1 -26.253704 0.000000 33.147579
RightShoulder -19.580102 29.185909 -52.943670
RightArm 57.300435 42.736074 44.640070
RightForeArm 60.651147 -0.000000 102.427429
RightHand 2.570533 -0.000000 6.123141
RightHandThumb1 -24.326973 -0.000000 -32.862282
LeftUpLeg -0.087178 6.249148 2.226016
LeftLeg -1.533036 -0.000000 0.000000
LeftFoot -8.135894 1.535635 -11.199003
LeftToeBase 9.861609 -0.000000 -0.000000
RightUpLeg -0.828517 -7.328085 0.533525
RightLeg 0.557982 -0.000000 -0.000000
RightFoot -6.715843 -1.440058 0.562152
RightToeBase -1.070849 -0.000000 0.000000
1147
root -1.025105 33.162896 -2.115674 7.367087 3.753663 -0.963488
Spine -13.136161 4.323130 -2.846961
Head 0.446496 5.262863 10.762355
LeftShoulder -18.017810 -11.671245 44.213310
LeftArm 163.023105 -40.329630 -111.056977
LeftForeArm -40.592198 -0.000000 143.885835
LeftHand -5.319870 -0.000000 -17.242346
LeftHandThumb1 -26.253704 0.000000 33.147579
RightShoulder -19.556525 29.172987 -52.904499
RightArm 57.312436 42.745128 44.644750
RightForeArm 60.676506 -0.000000 102.430129
RightHand 2.576365 -0.000000 6.129618
RightHandThumb1 -24.326973 -0.000000 -32.862282
LeftUpLeg -0.076574 6.257263 2.233163
LeftLeg -1.528355 -0.000000 0.000000
LeftFoot -8.144906 1.519902 -11.226772
LeftToeBase 9.889003 -0.000000 -0.000000
RightUpLeg -0.818498 -7.315801 0.536314
RightLeg 0.560156 -0.000000 -0.000000
RightFoot -6.716610 -1.440080 0.570538
RightToeBase -1.093539 -0.000000 0.000000
1148
root -1.026288 33.162973 -2.114930 7.353301 3.756953 -0.961289
Spine -13.135650 4.312741 -2.845390
Head 0.456930 5.262891 10.768874
LeftShoulder -18.024587 -11.746501 44.238620
LeftArm 162.912259 -40.362221 -110.973020
LeftForeArm -40.469526 -0.000000 143.908397
LeftHand -5.332810 -0.000000 -17.371501
LeftHandThumb1 -26.253704 0.000000 33.147579
RightShoulder -19.549772 29.155269 -52.890216
RightArm 57.352773 42.746913 44.680160
RightForeArm 60.664828 -0.000000 102.427771
RightHand 2.633913 0.000000 6.016718
RightHandThumb1 -24.326973 -0.000000 -32.862282
LeftUpLeg -0.064808 6.247606 2.236208
LeftLeg -1.534117 -0.000000 0.000000
LeftFoot -8.134608 1.522721 -11.168064
LeftToeBase 9.890570 -0.000000 -0.000000
RightUpLeg -0.823083 -7.363578 0.539920
RightLeg 0.600927 -0.000000 -0.000000
RightFoot -6.740150 -1.433548 0.516391
RightToeBase -1.078185 -0.000000 0.000000
1149
root -1.027721 33.162982 -2.115234 7.349161 3.753910 -0.957229
Spine -13.141022 4.293550 -2.849361
Head 0.459438 5.256894 10.782465
LeftShoulder -18.047501 -11.803833 44.266988
LeftArm 162.818458 -40.371236 -110.909490
LeftForeArm -40.482873 -0.000000 143.912193
LeftHand -5.344510 -0.000000 -17.329590
LeftHandThumb1 -26.253704 0.000000 33.147579
RightShoulder -19.548182 29.155084 -52.868809
RightArm 57.400640 42.737309 44.697979
RightForeArm 60.653965 -0.000000 102.410361
RightHand 2.591072 -0.000000 6.029433
RightHandThumb1 -24.326973 -0.000000 -32.862282
LeftUpLeg -0.063907 6.246067 2.232520
LeftLeg -1.516988 -0.000000 0.000000
LeftFoot -8.145759 1.527114 -11.226382
LeftToeBase 9.885936 -0.000000 -0.000000
RightUpLeg -0.797188 -7.292476 0.531160
RightLeg 0.558099 -0.000000 -0.000000
RightFoot -6.732801 -1.452448 0.574446
RightToeBase -1.014675 -0.000000 0.000000
1150
root -1.029009 33.163055 -2.114830 7.342685 3.755807 -0.955288
Spine -13.150944 4.286879 -2.844372
Head 0.474862 5.240485 10.770389
LeftShoulder -18.045953 -11.844513 44.267284
LeftArm 162.755742 -40.357771 -110.852268
LeftForeArm -40.560477 -0.000000 143.907592
LeftHand -5.386515 -0.000000 -17.217605
LeftHandThumb1 -26.253704 0.000000 33.147579
RightShoulder -19.543233 29.145252 -52.863462
RightArm 57.412941 42.732392 44.693278
RightForeArm 60.653771 -0.000000 102.400033
RightHand 2.625013 -0.000000 6.024498
RightHandThumb1 -24.326973 -0.000000 -32.862282
LeftUpLeg -0.059984 6.256899 2.232353
LeftLeg -1.511926 -0.000000 0.000000
LeftFoot -8.147828 1.523846 -11.206940
LeftToeBase 9.926972 -0.000000 -0.000000
RightUpLeg -0.785479 -7.278525 0.529677
RightLeg 0.546377 -0.000000 -0.000000
RightFoot -6.718746 -1.465057 0.578659
RightToeBase -1.030910 -0.000000 0.000000
1151
root -1.029578 33.162813 -2.113278 7.327667 3.758918 -0.955133
Spine -13.144792 4.280898 -2.839369
Head 0.470878 5.222639 10.762813
LeftShoulder -18.050115 -11.944295 44.307490
LeftArm 162.648384 -40.405400 -110.794907
LeftForeArm -40.542927 -0.000000 143.908482
LeftHand -5.389577 -0.000000 -17.157812
LeftHandThumb1 -26.253704 0.000000 33.147579
RightShoulder -19.553641 29.164829 -52.857023
RightArm 57.433251 42.710561 44.696359
RightForeArm 60.682191 -0.000000 102.387997
RightHand 2.689795 -0.000000 6.156384
RightHandThumb1 -24.326973 -0.000000 -32.862282
LeftUpLeg -0.044085 6.243136 2.235367
LeftLeg -1.508346 -0.000000 0.000000
LeftFoot -8.145452 1.531659 -11.225498
LeftToeBase 9.898162 -0.000000 -0.000000
RightUpLeg -0.801111 -7.358957 0.534436
RightLeg 0.616391 -0.000000 -0.000000
RightFoot -6.750714 -1.426788 0.517316
RightToeBase -1.104935 -0.000000 0.000000
1152
root -1.030911 33.162955 -2.113714 7.325187 3.760926 -0.949251
Spine -13.153305 4.268221 -2.840720
Head 0.465105 5.216428 10.745334
LeftShoulder -18.052630 -11.985294 44.326695
LeftArm 162.592253 -40.416196 -110.769293
LeftForeArm -40.483573 -0.000000 143.917036
LeftHand -5.618907 -0.000000 -16.793702
LeftHandThumb1 -26.253704 0.000000 33.147579
RightShoulder -19.555535 29.152425 -52.861339
RightArm 57.431394 42.715631 44.717793
RightForeArm 60.641530 -0.000000 102.405715
RightHand 2.665894 -0.000000 5.975279
RightHandThumb1 -24.326973 -0.000000 -32.862282
LeftUpLeg -0.045092 6.234158 2.231665
LeftLeg -1.506022 -0.000000 0.000000
LeftFoot -8.139828 1.544299 -11.215206
LeftToeBase 9.869017 -0.000000 -0.000000
RightUpLeg -0.783819 -7.307658 0.526987
RightLeg 0.584366 -0.000000 -0.000000
RightFoot -6.730661 -1.445913 0.547611
RightToeBase -1.080122 -0.000000 0.000000
1153
root -1.032518 33.162801 -2.113899 7.325997 3.756235 -0.952130
Spine -13.166990 4.259535 -2.838083
Head 0.453633 5.204824 10.751872
LeftShoulder -18.075855 -12.024975 44.357205
LeftArm 162.519776 -40.418841 -110.721410
LeftForeArm -40.489934 -0.000000 143.922222
LeftHand -5.609965 -0.000000 -16.801250
LeftHandThumb1 -26.253704 0.000000 33.147579
RightShoulder -19.439010 28.892670 -52.641133
RightArm 57.752492 42.980061 44.784554
RightForeArm 60.705946 0.000000 102.345859
RightHand 2.727427 -0.000000 6.150324
RightHandThumb1 -24.326973 -0.000000 -32.862282
LeftUpLeg -0.046139 6.235662 2.237422
LeftLeg -1.502518 -0.000000 0.000000
LeftFoot -8.153633 1.538090 -11.211925
LeftToeBase 9.885009 -0.000000 -0.000000
RightUpLeg -0.777075 -7.270023 0.529484
RightLeg 0.569553 -0.000000 -0.000000
RightFoot -6.733380 -1.468555 0.580818
RightToeBase -1.076454 -0.000000 0.000000
1154
root -1.033515 33.162780 -2.113814 7.322432 3.756076 -0.946641
Spine -13.178551 4.260592 -2.843646
Head 0.444944 5.177688 10.739268
LeftShoulder -18.071982 -12.093932 44.380520
LeftArm 162.428611 -40.440415 -110.664075
LeftForeArm -40.481807 -0.000000 143.929411
LeftHand -5.628196 0.000000 -16.814929
LeftHandThumb1 -26.253704 0.000000 33.147579
RightShoulder -19.534665 29.064133 -52.809564
RightArm 57.508544 42.795195 44.753917
RightForeArm 60.651830 -0.000000 102.403607
RightHand 2.688993 -0.000000 6.001702
RightHandThumb1 -24.326973 -0.000000 -32.862282
LeftUpLeg -0.047920 6.224167 2.234982
LeftLeg -1.489930 -0.000000 0.000000
LeftFoot -8.164965 1.541433 -11.219192
LeftToeBase 9.933949 -0.000000 -0.000000
RightUpLeg -0.780950 -7.287250 0.526871
RightLeg 0.586499 -0.000000 -0.000000
RightFoot -6.743655 -1.464672 0.555449
RightToeBase -1.073243 -0.000000 0.000000
